<?xml version="1.0" encoding="utf-8"?>
<!-- Generator: Adobe Illustrator 16.0.0, SVG Export Plug-In . SVG Version: 6.00 Build 0)  -->
<!DOCTYPE svg PUBLIC "-//W3C//DTD SVG 1.1//EN" "http://www.w3.org/Graphics/SVG/1.1/DTD/svg11.dtd">
<svg version="1.1" xmlns="http://www.w3.org/2000/svg" xmlns:xlink="http://www.w3.org/1999/xlink" x="0px" y="0px" width="1162px"
	 height="636px" viewBox="0 0 1162 636" enable-background="new 0 0 1162 636" xml:space="preserve">
<g id="Margin_Layer">
	<g id="Margin_Rectangle_1_">
		<rect x="1" y="1" fill="#FFFFFF" width="1160" height="634"/>
		<g>
			<polyline fill="none" stroke="#000000" stroke-width="2" stroke-miterlimit="10" points="1161,629 1161,635 1155,635 			"/>
			
				<line fill="none" stroke="#000000" stroke-width="2" stroke-miterlimit="10" stroke-dasharray="11.917,3.9723" x1="1151.027" y1="635" x2="8.986" y2="635"/>
			<polyline fill="none" stroke="#000000" stroke-width="2" stroke-miterlimit="10" points="7,635 1,635 1,629 			"/>
			
				<line fill="none" stroke="#000000" stroke-width="2" stroke-miterlimit="10" stroke-dasharray="11.8854,3.9618" x1="1" y1="625.038" x2="1" y2="8.981"/>
			<polyline fill="none" stroke="#000000" stroke-width="2" stroke-miterlimit="10" points="1,7 1,1 7,1 			"/>
			
				<line fill="none" stroke="#000000" stroke-width="2" stroke-miterlimit="10" stroke-dasharray="11.917,3.9723" x1="10.972" y1="1" x2="1153.014" y2="1"/>
			<polyline fill="none" stroke="#000000" stroke-width="2" stroke-miterlimit="10" points="1155,1 1161,1 1161,7 			"/>
			
				<line fill="none" stroke="#000000" stroke-width="2" stroke-miterlimit="10" stroke-dasharray="11.8854,3.9618" x1="1161" y1="10.962" x2="1161" y2="627.02"/>
		</g>
	</g>
</g>
<g id="Border_Layer">
	
		<rect id="Border_Rectangle" x="84" y="84" fill="#C0C0C0" stroke="#000000" stroke-width="2" stroke-miterlimit="10" width="994" height="470"/>
</g>
<g id="Padding_Layer">
	
		<rect id="Padding_Rectangle" x="168" y="167" fill="#FFFFFF" stroke="#000000" stroke-width="2" stroke-miterlimit="10" width="827" height="304"/>
</g>
<g id="Content_Layer">
	
		<rect id="Content_Rectangle" x="248" y="250" fill="#FFFBF0" stroke="#000000" stroke-width="2" stroke-miterlimit="10" stroke-dasharray="12,4" width="664" height="139"/>
</g>
<g id="Text_Layer">
	<text transform="matrix(1 0 0 1 116.1665 604.002)" font-family="'Calibri'" font-size="36">Margin</text>
	<text transform="matrix(1 0 0 1 256.333 523)" font-family="'Calibri'" font-size="36">Border</text>
	<text transform="matrix(1 0 0 1 380.3335 441.667)" font-family="'Calibri'" font-size="36">Padding</text>
	<text transform="matrix(0.9031 0 0 1 520.333 383.001)" font-family="'Calibri'" font-size="36">Content</text>
	<text transform="matrix(1.135 0 0 1 358.9995 333.8076)" font-family="'Calibri'" font-size="80">Hello World</text>
</g>
</svg>
